<?xml version="1.0" standalone="no"?>
<!DOCTYPE svg PUBLIC "-//W3C//DTD SVG 20010904//EN"
 "http://www.w3.org/TR/2001/REC-SVG-20010904/DTD/svg10.dtd">
<svg version="1.0" xmlns="http://www.w3.org/2000/svg"
 width="720.000000pt" height="720.000000pt" viewBox="0 0 720.000000 720.000000"
 preserveAspectRatio="xMidYMid meet">
<metadata>
Created by potrace 1.11, written by Peter Selinger 2001-2013
</metadata>
<g transform="translate(0.000000,720.000000) scale(0.100000,-0.100000)"
fill="#000000" stroke="none">
<path d="M2555 6020 c-194 -26 -369 -120 -523 -280 -113 -118 -214 -295 -252
-446 -25 -95 -27 -304 -5 -408 41 -195 152 -383 296 -502 39 -32 80 -66 90
-76 26 -21 192 -102 252 -123 110 -37 319 -68 402 -59 200 22 379 110 532 262
103 103 139 151 197 264 79 154 112 305 103 473 -6 106 -9 126 -43 245 -47
164 -170 344 -312 456 -90 71 -222 139 -326 167 -101 28 -304 41 -411 27z"/>
<path d="M4172 5644 c-5 -11 -13 -63 -17 -118 -4 -54 -11 -112 -16 -130 -5
-17 -21 -74 -35 -126 -60 -225 -107 -367 -155 -463 -33 -65 -107 -195 -121
-212 -5 -5 -32 -42 -61 -81 -156 -213 -320 -366 -493 -460 -38 -21 -71 -40
-74 -43 -3 -3 -21 -12 -40 -19 -19 -8 -57 -23 -85 -34 -73 -29 -189 -63 -280
-83 -44 -9 -93 -22 -110 -28 -43 -17 -382 -16 -465 1 -168 35 -210 45 -280 68
-109 36 -207 79 -360 157 -122 63 -186 104 -344 220 -137 100 -165 111 -190
75 -15 -21 -65 -96 -247 -368 -31 -47 -67 -96 -81 -110 -38 -39 -53 -84 -39
-117 17 -40 243 -253 269 -253 5 0 12 -6 15 -13 3 -7 24 -26 48 -42 24 -17 46
-32 49 -35 3 -3 25 -21 50 -40 25 -19 50 -38 55 -43 30 -24 135 -97 140 -97 3
0 26 -15 52 -34 27 -18 75 -49 108 -67 33 -18 62 -35 65 -38 8 -10 211 -108
266 -130 28 -11 71 -29 95 -40 46 -21 201 -69 304 -95 170 -42 597 -78 693
-58 32 7 72 12 89 12 45 0 80 15 93 41 9 16 9 44 1 113 -20 157 10 389 70 532
46 109 82 162 195 277 115 119 286 210 468 249 144 31 353 17 471 -32 78 -33
140 -65 188 -97 29 -20 65 -39 81 -44 25 -7 33 -4 60 25 26 28 96 173 96 199
0 4 9 26 19 50 23 50 59 148 72 197 5 19 16 51 24 70 19 45 53 183 71 285 35
197 56 867 28 894 -12 12 -180 41 -237 41 -23 0 -118 12 -212 26 -265 39 -281
40 -293 18z"/>
<path d="M3975 3819 c-121 -17 -291 -90 -380 -163 -164 -134 -251 -281 -285
-479 -14 -85 -9 -277 10 -382 12 -62 65 -208 84 -229 6 -6 20 -27 30 -46 66
-117 257 -325 516 -560 164 -150 290 -279 290 -298 0 -5 7 -16 16 -23 15 -12
83 -102 136 -177 13 -18 33 -46 46 -62 13 -16 39 -61 58 -100 19 -39 41 -73
49 -76 27 -11 68 12 87 47 18 36 78 103 138 154 80 70 280 224 350 270 41 28
77 53 78 58 2 4 9 7 16 7 6 0 27 11 47 24 20 14 67 41 105 62 304 162 394 214
394 226 0 5 5 8 11 8 16 0 160 124 195 167 16 20 34 41 39 47 67 72 157 277
186 421 19 98 17 305 -3 376 -35 120 -124 263 -225 360 -60 57 -179 135 -223
146 -14 3 -29 9 -35 13 -34 24 -114 33 -258 27 -136 -5 -160 -9 -228 -35 -89
-34 -196 -101 -269 -168 -58 -55 -150 -186 -150 -215 0 -10 -6 -19 -13 -19 -7
0 -20 30 -31 72 -29 111 -98 238 -175 320 -24 26 -50 56 -58 68 -8 11 -18 20
-23 20 -5 0 -22 12 -37 26 -41 40 -164 93 -250 110 -82 15 -145 16 -238 3z"/>
</g>
</svg>
