<?xml version="1.0" standalone="no"?>
<!DOCTYPE svg PUBLIC "-//W3C//DTD SVG 20010904//EN"
 "http://www.w3.org/TR/2001/REC-SVG-20010904/DTD/svg10.dtd">
<svg version="1.0" xmlns="http://www.w3.org/2000/svg"
 width="720.000000pt" height="720.000000pt" viewBox="0 0 720.000000 720.000000"
 preserveAspectRatio="xMidYMid meet">
<metadata>
Created by potrace 1.11, written by Peter Selinger 2001-2013
</metadata>
<g transform="translate(0.000000,720.000000) scale(0.100000,-0.100000)"
fill="#000000" stroke="none">
<path d="M3305 6675 c-198 -19 -361 -52 -565 -113 -94 -28 -253 -84 -265 -92
-5 -4 -21 -11 -35 -15 -26 -8 -227 -107 -320 -158 -103 -57 -334 -209 -360
-237 -8 -9 -51 -45 -95 -80 -103 -82 -280 -255 -353 -345 -31 -38 -69 -82 -85
-98 -15 -16 -27 -32 -27 -36 0 -3 -14 -22 -32 -41 -17 -19 -37 -44 -43 -55 -6
-11 -33 -54 -59 -95 -27 -41 -59 -91 -71 -110 -12 -19 -33 -53 -46 -75 -24
-37 -126 -244 -162 -325 -24 -56 -87 -228 -87 -239 0 -6 -13 -50 -29 -98 -16
-49 -34 -110 -39 -138 -82 -408 -100 -604 -82 -900 11 -184 15 -221 51 -405
36 -183 46 -224 68 -285 11 -32 21 -65 21 -73 0 -14 83 -240 99 -269 5 -10 22
-47 38 -83 15 -36 35 -78 45 -95 10 -16 29 -52 43 -80 13 -27 30 -59 37 -70 7
-11 26 -42 42 -70 42 -70 143 -222 179 -270 104 -135 332 -375 447 -470 25
-21 47 -40 50 -44 15 -18 117 -96 205 -155 55 -37 107 -73 115 -79 8 -7 26
-17 40 -24 14 -7 48 -26 75 -42 52 -31 311 -161 321 -161 3 0 20 -6 37 -14 18
-7 61 -24 97 -36 36 -12 74 -26 85 -31 11 -5 54 -18 95 -30 67 -19 107 -29
280 -69 90 -21 241 -39 416 -50 272 -17 543 2 789 56 190 42 274 66 402 115
59 22 126 47 147 55 84 32 143 60 286 136 25 13 77 45 117 70 40 26 85 54 101
62 16 8 66 43 111 78 46 35 96 73 112 85 131 97 384 352 508 513 30 38 58 70
63 70 4 0 8 5 8 10 0 6 26 50 58 98 79 117 135 210 152 252 8 19 17 37 20 40
25 21 177 379 204 483 8 29 19 63 25 77 18 41 78 327 95 450 67 494 25 951
-133 1435 -43 132 -174 425 -193 433 -5 2 -8 9 -8 16 0 16 -90 172 -161 279
-33 48 -59 89 -59 92 0 2 -12 17 -27 33 -16 16 -50 57 -78 92 -80 102 -277
305 -370 383 -16 14 -62 51 -100 84 -39 32 -93 74 -120 92 -28 19 -52 38 -55
41 -3 3 -23 17 -45 30 -22 13 -68 41 -102 63 -78 50 -105 64 -233 127 -110 54
-314 140 -334 140 -6 0 -22 6 -36 13 -14 7 -47 19 -75 26 -27 8 -77 22 -110
32 -289 90 -734 128 -1090 94z"/>
</g>
</svg>
